<svg width="1439" height="108" viewBox="0 0 1439 108" fill="none" xmlns="http://www.w3.org/2000/svg">
<rect width="1440" height="95.0096" transform="translate(1438 93.853) rotate(-179.448)" fill="#E6E9EE"/>
<g clip-path="url(#clip0_1657_8247)">
<path d="M-281.937 79.0206C-281.822 78.8427 -281.686 78.6794 -281.532 78.5344C-252.145 80.0077 -252.466 91.5651 -223.057 91.8485C-193.649 92.1318 -193.516 79.3825 -164.097 79.666C-134.679 79.9495 -134.792 92.699 -105.373 92.9824C-75.9543 93.2659 -75.8314 80.5165 -46.4228 80.7999C-17.0141 81.0832 -17.1271 93.8327 12.2916 94.1162C41.7103 94.3997 41.823 81.6502 71.2417 81.9336C100.66 82.2171 100.538 94.9665 129.926 95.2497C159.315 95.5329 159.458 82.7836 188.876 83.0671C218.295 83.3506 218.202 96.1003 247.621 96.3837C277.039 96.6672 277.152 83.9177 306.571 84.2012C335.99 84.4846 335.867 97.234 365.275 97.5174C394.684 97.8008 394.817 85.0515 424.225 85.3348C453.634 85.6182 453.521 98.3677 482.91 98.6509C512.298 98.9341 512.451 86.1849 541.86 86.4683C571.269 86.7517 571.176 99.5014 600.584 99.7848C629.993 100.068 630.126 87.3188 659.534 87.6022C688.943 87.8855 688.83 100.635 718.239 100.918C747.648 101.202 747.78 88.4525 777.199 88.7359C806.618 89.0194 806.485 101.769 835.893 102.052C865.302 102.335 865.425 89.5861 894.844 89.8695C924.262 90.153 924.149 102.902 953.558 103.186C982.967 103.469 983.099 90.7199 1012.51 91.0033C1041.92 91.2867 1041.8 104.036 1071.21 104.32C1100.62 104.603 1100.75 91.8536 1130.17 92.1371C1159.59 92.4205 1159.46 105.17 1188.88 105.453C1218.3 105.737 1218.41 92.9873 1247.83 93.2707C1277.25 93.5542 1277.11 106.304 1306.53 106.587C1335.95 106.87 1336.06 94.1209 1365.48 94.4044C1394.9 94.6879 1394.77 107.437 1424.19 107.721C1453.6 108.004 1453.73 95.2547 1483.14 95.5381C1512.54 95.8214 1512.43 108.571 1541.86 108.855C1571.29 109.138 1571.38 96.3884 1600.79 96.6717C1630.2 96.9551 1630.09 109.705 1659.5 109.988C1688.74 110.27 1689.05 97.6621 1717.98 97.8109L1718.29 65.5524L-281.621 46.2821L-281.937 79.0206Z" fill="#E6E9EE"/>
</g>
<defs>
<clipPath id="clip0_1657_8247">
<rect width="1440" height="20" fill="white" transform="translate(1437.87 107.853) rotate(-179.448)"/>
</clipPath>
</defs>
</svg>
