<svg width="1439" height="461" viewBox="0 0 1439 461" fill="none" xmlns="http://www.w3.org/2000/svg">
<rect width="1440" height="445.58" transform="translate(1 9.01855) rotate(0.226287)" fill="#DCB2B9"/>
<g clip-path="url(#clip0_1684_7083)">
<path d="M1720.99 14.0714C1720.88 14.2499 1720.75 14.414 1720.59 14.5598C1691.2 13.2537 1691.45 1.69462 1662.04 1.57846C1632.63 1.46231 1632.57 14.2122 1603.15 14.096C1573.73 13.9798 1573.77 1.22985 1544.35 1.11365C1514.93 0.997462 1514.88 13.7474 1485.47 13.6312C1456.06 13.5151 1456.1 0.765117 1426.68 0.648924C1397.26 0.532731 1397.22 13.2827 1367.8 13.1665C1338.38 13.0503 1338.44 0.300386 1309.05 0.184311C1279.66 0.0682373 1279.59 12.8181 1250.17 12.7019C1220.75 12.5857 1220.77 -0.164345 1191.35 -0.280538C1161.93 -0.39673 1161.89 12.3532 1132.47 12.237C1103.05 12.1208 1103.1 -0.629076 1073.69 -0.745229C1044.28 -0.861382 1044.22 11.8885 1014.81 11.7723C985.397 11.6562 985.438 -1.09377 956.048 -1.20984C926.658 -1.32592 926.578 11.4239 897.168 11.3077C867.758 11.1916 867.779 -1.55846 838.369 -1.67461C808.959 -1.79077 808.899 10.9591 779.489 10.8429C750.079 10.7268 750.12 -2.02315 720.71 -2.1393C691.3 -2.25546 691.24 10.4944 661.82 10.3782C632.4 10.262 632.46 -2.48784 603.051 -2.60399C573.641 -2.72015 573.591 10.0298 544.171 9.91356C514.751 9.79737 514.791 -2.95257 485.382 -3.06873C455.972 -3.18488 455.911 9.56498 426.502 9.44883C397.092 9.33268 397.132 -3.41726 367.723 -3.53342C338.313 -3.64957 338.252 9.10029 308.833 8.9841C279.413 8.86791 279.473 -3.88196 250.053 -3.99815C220.634 -4.11434 220.593 8.6356 191.174 8.51941C161.754 8.40321 161.814 -4.34665 132.394 -4.46284C102.975 -4.57903 102.934 8.17091 73.5145 8.05472C44.0947 7.93852 44.1551 -4.81134 14.7353 -4.92753C-14.6845 -5.04372 -14.7348 7.70618 -44.1446 7.59002C-73.5543 7.47387 -73.514 -5.27607 -102.944 -5.3923C-132.374 -5.50853 -132.394 7.24149 -161.804 7.12533C-191.213 7.00918 -191.173 -5.74076 -220.583 -5.85691C-249.833 -5.97243 -250.062 6.63676 -278.993 6.6525L-279.12 38.9122L1720.86 46.8111L1720.99 14.0714Z" fill="#DCB2B9"/>
</g>
<defs>
<clipPath id="clip0_1684_7083">
<rect width="1440" height="20" fill="white" transform="translate(1.05566 -4.98145) rotate(0.226287)"/>
</clipPath>
</defs>
</svg>
