<svg width="1439" height="461" viewBox="0 0 1439 461" fill="none" xmlns="http://www.w3.org/2000/svg">
<rect width="1440" height="445.58" transform="translate(1439 447) rotate(-179.931)" fill="#D0E0EC" fill-opacity="0.56"/>
<g clip-path="url(#clip0_1682_7060)">
<path d="M-281 446.672C-280.887 446.493 -280.753 446.329 -280.6 446.183C-251.201 447.408 -251.425 458.968 -222.015 459.003C-192.605 459.038 -192.58 446.288 -163.16 446.324C-133.74 446.359 -133.745 459.109 -104.325 459.144C-74.9053 459.18 -74.89 446.43 -45.48 446.465C-16.07 446.501 -16.0754 459.251 13.3446 459.286C42.7646 459.321 42.7698 446.571 72.1898 446.607C101.61 446.642 101.595 459.392 130.985 459.427C160.375 459.463 160.41 446.713 189.83 446.748C219.25 446.783 219.264 459.533 248.684 459.569C278.104 459.604 278.11 446.854 307.53 446.89C336.95 446.925 336.934 459.675 366.344 459.71C395.754 459.746 395.78 446.996 425.19 447.031C454.6 447.066 454.594 459.816 483.984 459.852C513.374 459.887 513.42 447.137 542.83 447.172C572.24 447.208 572.254 459.958 601.664 459.993C631.074 460.029 631.099 447.279 660.509 447.314C689.92 447.349 689.914 460.099 719.324 460.135C748.734 460.17 748.759 447.42 778.179 447.455C807.599 447.491 807.574 460.241 836.984 460.276C866.394 460.311 866.409 447.561 895.829 447.597C925.249 447.632 925.244 460.382 954.654 460.418C984.064 460.453 984.089 447.703 1013.5 447.738C1042.91 447.774 1042.9 460.524 1072.31 460.559C1101.72 460.594 1101.75 447.844 1131.17 447.88C1160.59 447.915 1160.56 460.665 1189.98 460.7C1219.4 460.736 1219.41 447.986 1248.83 448.021C1278.25 448.057 1278.22 460.807 1307.64 460.842C1337.06 460.877 1337.07 448.127 1366.49 448.163C1395.91 448.198 1395.88 460.948 1425.3 460.983C1454.72 461.019 1454.74 448.269 1484.15 448.304C1513.56 448.339 1513.55 461.089 1542.98 461.125C1572.41 461.16 1572.4 448.41 1601.81 448.446C1631.22 448.481 1631.21 461.231 1660.62 461.266C1689.87 461.301 1690.07 448.692 1719 448.596L1719.04 416.336L-280.961 413.932L-281 446.672Z" fill="#D0E0EC" fill-opacity="0.56"/>
</g>
<defs>
<clipPath id="clip0_1682_7060">
<rect width="1440" height="20" fill="white" transform="translate(1438.98 461) rotate(-179.931)"/>
</clipPath>
</defs>
</svg>
