<svg width="101" height="84" viewBox="0 0 101 84" fill="none" xmlns="http://www.w3.org/2000/svg">
<g clip-path="url(#clip0_1209_12206)">
<g clip-path="url(#clip1_1209_12206)">
<path d="M100.012 18.7568C100.012 29.4085 95.7809 39.6238 88.249 47.1556C80.7172 54.6875 70.5018 58.9188 59.8502 58.9188C49.1986 58.9188 38.9832 54.6875 31.4514 47.1556C23.9196 39.6238 19.6882 29.4085 19.6882 18.7568" fill="#EAA2CC"/>
<path d="M52.2084 35.4936C50.2019 33.84 48.4583 34.2413 46.4448 35.0646C45.8359 33.2864 46.1404 28.4431 46.1404 27.3014C46.1404 27.3014 46.1404 27.3014 46.1404 27.2461C46.1676 27.0991 46.1624 26.948 46.1251 26.8034C46.0878 26.6587 46.0192 26.5239 45.9243 26.4085C45.8293 26.2931 45.7103 26.1999 45.5755 26.1354C45.4407 26.0709 45.2934 26.0367 45.144 26.0352C41.733 25.8553 38.3148 25.8553 34.9037 26.0352C34.7237 26.0382 34.5475 26.0879 34.3925 26.1796C34.2375 26.2712 34.109 26.4017 34.0197 26.558C33.9303 26.7144 33.8832 26.8913 33.8829 27.0713C33.8827 27.2514 33.9292 27.4285 34.0181 27.5851C35.3466 29.7854 34.6339 33.2934 31.8939 33.7639H31.8593C31.1257 33.9182 30.3629 33.8532 29.666 33.577C29.2895 33.382 28.9564 33.1129 28.6865 32.7859C28.4166 32.459 28.2155 32.0809 28.0953 31.6743C27.8625 30.965 27.7859 30.2138 27.8706 29.4721C27.9554 28.7305 28.1997 28.0159 28.5866 27.3775C28.6736 27.2201 28.7185 27.0428 28.7169 26.863C28.7153 26.6831 28.6673 26.5067 28.5775 26.3508C28.4878 26.1949 28.3593 26.0648 28.2045 25.9732C28.0497 25.8815 27.8739 25.8314 27.694 25.8276L17.6198 25.9383C17.3475 25.9419 17.0873 26.0517 16.8948 26.2443C16.7022 26.4368 16.5924 26.697 16.5889 26.9693V30.754C16.5889 31.0293 16.6982 31.2933 16.8928 31.4879C17.0875 31.6826 17.3515 31.7919 17.6267 31.7919C17.902 31.7919 18.166 31.6826 18.3606 31.4879C18.5552 31.2933 18.6646 31.0293 18.6646 30.754V27.9864L26.2756 27.9034C25.3554 31.5567 26.6008 36.0541 31.2435 35.8742C35.395 35.6874 37.4707 31.5428 36.4536 28.0141C38.986 27.9103 41.5253 27.9726 44.0646 28.0556C43.947 30.7471 43.3727 35.459 45.317 37.0504C45.4842 37.2023 45.694 37.299 45.9181 37.3275C46.1421 37.356 46.3695 37.3148 46.5694 37.2096C48.486 36.3793 50.7762 36.2617 51.9248 38.289C52.4158 39.1653 52.581 40.1872 52.3911 41.1737C52.2011 42.1601 51.6683 43.0476 50.8869 43.6789C50.1536 44.1986 49.2633 44.4487 48.3667 44.3869C47.4701 44.3251 46.6224 43.9552 45.9674 43.3399C45.8234 43.2024 45.643 43.1089 45.4476 43.0704C45.2522 43.0319 45.0498 43.0501 44.8644 43.1229C44.679 43.1956 44.5182 43.3198 44.4011 43.4808C44.2839 43.6418 44.2152 43.833 44.203 44.0318C43.9643 47.2956 43.9643 50.5724 44.203 53.8362C35.9762 54.0023 27.7425 53.7324 19.5087 53.8362C19.2335 53.8362 18.9695 53.9455 18.7748 54.1402C18.5802 54.3348 18.4709 54.5988 18.4709 54.8741C18.4709 55.1493 18.5802 55.4133 18.7748 55.6079C18.9695 55.8026 19.2335 55.9119 19.5087 55.9119C21.3769 55.9119 23.245 55.9119 25.1132 55.9119C24.6903 56.7234 24.0186 57.3781 23.1966 57.7801C21.8889 58.4236 20.5881 58.2298 19.1766 58.3613C17.7651 58.4928 16.4643 58.7003 15.5994 59.5791C13.9942 57.1366 12.0984 54.8948 10.2855 52.5838C12.555 50.2383 11.5517 46.8825 12.5412 43.9211C13.7589 40.2678 16.2983 38.2682 18.4639 35.4936C19.2043 36.7183 19.481 37.8738 18.7615 39.1746C18.374 39.8665 17.8481 40.4962 17.5091 41.2157C16.6857 43.0424 17.0455 45.2496 17.4676 47.1247C17.8274 48.6399 17.8758 50.2175 16.665 51.373C16.4415 51.5829 16.1982 51.7706 15.9385 51.9334C14.8314 52.6254 15.8623 54.4312 16.9763 53.7117C22.055 50.4528 17.2393 45.4087 19.8201 41.3403C21.8059 38.2198 21.5706 36.0472 19.1835 33.0373C19.0715 32.9284 18.9363 32.8461 18.7881 32.7967C18.6398 32.7473 18.4823 32.732 18.3273 32.752C18.1723 32.7719 18.0239 32.8266 17.893 32.912C17.7621 32.9973 17.6521 33.1111 17.5714 33.2449C15.6894 36.061 12.9217 37.7631 11.5171 40.939C10.8814 42.2812 10.3964 43.6898 10.0711 45.1389C9.70434 46.9724 10.2094 49.3388 8.99859 50.9302C8.77749 50.7312 8.48746 50.6264 8.19024 50.638C7.89302 50.6496 7.61207 50.7768 7.40719 50.9924C7.30349 51.0319 7.20571 51.0855 7.11659 51.1516C5.31707 52.6008 3.39299 53.8881 1.36681 54.9986C1.21822 55.0842 1.09404 55.2064 1.00614 55.3536C0.918226 55.5009 0.869518 55.6682 0.864661 55.8396C0.859803 56.011 0.898958 56.1808 0.978388 56.3327C1.05782 56.4847 1.17487 56.6138 1.31838 56.7076C4.57036 60.098 7.54558 63.7167 9.55904 67.9996C9.58439 68.1651 9.64915 68.3221 9.74786 68.4573C9.84657 68.5926 9.97633 68.7021 10.1262 68.7767C10.2761 68.8513 10.4417 68.8888 10.6091 68.886C10.7766 68.8832 10.9408 68.8403 11.0882 68.7607C12.2644 68.0688 13.1639 67.0379 14.3125 66.3459C15.4364 65.7852 16.4529 65.0311 17.3154 64.118C17.4185 63.9976 17.4928 63.8552 17.5323 63.7017C17.5719 63.5482 17.5758 63.3876 17.5437 63.2323C17.5448 63.0623 17.5069 62.8942 17.433 62.7411C17.2323 62.3329 17.0178 61.9385 16.7964 61.5441C16.8249 61.4936 16.8481 61.4402 16.8656 61.3849C17.2877 60.0842 20.1937 60.3817 21.2385 60.3609C22.1014 60.3526 22.9535 60.169 23.7432 59.8212C25.7498 58.984 26.5109 57.8147 27.4519 55.9396C33.4023 55.9811 39.3527 56.078 45.3032 55.9396C45.562 55.9397 45.8106 55.8383 45.9956 55.6572C46.1805 55.4761 46.2872 55.2297 46.2926 54.9709C46.3318 54.8529 46.346 54.728 46.3341 54.6042C46.1139 51.7453 46.0492 48.8766 46.1404 46.0107C49.3993 47.5329 53.7929 45.4848 54.4917 41.7554C54.6846 40.6034 54.5756 39.421 54.1755 38.3236C53.7753 37.2262 53.0976 36.2512 52.2084 35.4936ZM12.9632 64.7476C12.2812 65.2231 11.6295 65.7408 11.0121 66.2975C9.04198 62.5605 6.53614 59.1315 3.57401 56.1195C5.13374 55.1931 6.63355 54.1694 8.06451 53.0543C10.6177 56.3617 13.3991 59.4891 15.3365 63.2116C14.5952 63.7967 13.8006 64.311 12.9632 64.7476Z" fill="#003125"/>
<path d="M99.9639 55.428C97.7913 53.9681 96.0131 52.0515 93.8612 50.5846C93.788 50.5358 93.7089 50.4963 93.626 50.467C93.4507 50.3743 93.2475 50.3492 93.0549 50.3964C92.8623 50.4436 92.6938 50.5598 92.5812 50.723L92.2906 51.0828C91.1904 48.6196 91.3772 45.5475 90.4501 42.9598C89.5551 40.7961 88.3929 38.7529 86.9905 36.8779C85.9665 35.3764 84.4512 30.3393 81.8911 31.6055C77.4491 33.8127 82.1541 40.8633 81.6075 43.8731C81.2477 45.8865 80.4589 47.1389 81.0816 49.187C81.7043 51.235 83.3234 52.9164 84.8249 54.3901C85.7659 55.3173 87.2258 53.8643 86.2779 52.9371C84.6934 51.3803 83.1573 49.8028 83.0051 47.5125C82.8944 45.9004 83.7455 44.7449 83.8908 43.1742C84.043 41.4998 83.2681 40.1713 82.756 38.6215C82.3623 37.6705 82.1488 36.6545 82.1264 35.6255C82.0795 35.2582 82.1068 34.8853 82.2066 34.5287C82.3064 34.1722 82.4768 33.8393 82.7076 33.5498C84.7833 36.9194 87.3503 40.2198 88.6234 44.0115C89.606 46.9452 89.2462 50.1072 90.8583 52.7987C89.1839 54.8745 87.4749 56.8741 85.7935 58.9152C82.8252 57.6352 78.743 58.7353 77.1308 55.5802L81.7528 55.5387C82.028 55.5387 82.292 55.4293 82.4866 55.2347C82.6813 55.0401 82.7906 54.7761 82.7906 54.5008C82.7906 54.2256 82.6813 53.9616 82.4866 53.7669C82.292 53.5723 82.028 53.463 81.7528 53.463L57.3906 53.6913C57.2614 50.9652 57.2222 48.2367 57.273 45.506C61.1338 46.2948 65.0016 43.7693 64.9808 39.431C64.974 38.4789 64.7277 37.5438 64.2646 36.7119C63.8015 35.88 63.1365 35.178 62.3308 34.6707C61.6256 34.2501 60.8396 33.9829 60.0242 33.8863C59.2088 33.7898 58.3821 33.8661 57.5982 34.1102C57.6881 32.0898 57.7296 30.0625 57.7019 28.0421L66.1709 28.0975C66.3263 28.0997 66.48 28.0666 66.6207 28.0006C66.7757 27.9759 66.9218 27.9119 67.0451 27.8147C67.1684 27.7176 67.2648 27.5905 67.3252 27.4456C67.3855 27.3006 67.4077 27.1427 67.3898 26.9867C67.3719 26.8308 67.3143 26.682 67.2226 26.5545C65.4859 24.0844 66.593 19.0611 70.2048 19.4486C73.3876 19.8015 74.8406 23.0189 72.9724 25.6758C72.923 25.7473 72.8813 25.8239 72.8479 25.9041C72.7051 26.0467 72.607 26.2279 72.5656 26.4253C72.5242 26.6228 72.5412 26.8281 72.6146 27.016C72.6881 27.204 72.8147 27.3664 72.979 27.4836C73.1433 27.6007 73.3382 27.6673 73.5398 27.6754L82.6453 27.5924C82.6453 28.4504 82.7076 29.3083 82.7076 30.1732C82.7076 30.4485 82.817 30.7125 83.0116 30.9071C83.2062 31.1018 83.4702 31.2111 83.7455 31.2111C84.0207 31.2111 84.2847 31.1018 84.4794 30.9071C84.674 30.7125 84.7833 30.4485 84.7833 30.1732C84.7833 28.9693 84.6657 27.7723 84.7418 26.5684C84.7513 26.4496 84.7364 26.3301 84.6982 26.2173C84.6601 26.1044 84.5993 26.0005 84.5197 25.9118C84.4401 25.8231 84.3433 25.7516 84.2352 25.7015C84.1271 25.6514 84.0099 25.6238 83.8908 25.6205C83.771 25.5774 83.6444 25.5563 83.5171 25.5582L75.3457 25.6343C75.7108 24.7873 75.8853 23.8704 75.8566 22.9485C75.8279 22.0266 75.5968 21.1223 75.1796 20.2997C74.204 18.4177 72.1767 17.5528 70.1287 17.3729C65.6451 17.0269 63.4171 22.2163 64.6626 26.0079L56.6572 25.9595C56.516 25.9539 56.3754 25.9796 56.2453 26.0345C56.1151 26.0894 55.9987 26.1724 55.9043 26.2774C55.8098 26.3824 55.7397 26.5069 55.6988 26.6421C55.6579 26.7773 55.6473 26.9199 55.6677 27.0596C55.6568 27.1469 55.6568 27.2353 55.6677 27.3226C55.7092 29.8757 55.6677 32.4358 55.5293 34.9889C55.5184 35.0855 55.5184 35.183 55.5293 35.2795C55.4996 35.477 55.5232 35.6788 55.5976 35.864C55.6721 36.0493 55.7946 36.2113 55.9526 36.3334C56.1106 36.4554 56.2984 36.533 56.4965 36.5582C56.6945 36.5834 56.8957 36.5552 57.0792 36.4765C59.9022 35.1965 63.4171 36.6426 62.8844 40.1575C62.4 43.3334 59.3556 44.309 56.6572 43.2227C56.5038 43.1486 56.3309 43.1247 56.1632 43.1545C55.9955 43.1844 55.8415 43.2663 55.7231 43.3887C55.59 43.4758 55.4809 43.5949 55.406 43.7352C55.331 43.8755 55.2925 44.0323 55.2941 44.1914C55.1972 47.6855 55.2249 51.1727 55.4325 54.66C55.436 54.8148 55.4763 54.9666 55.5501 55.1028C55.6052 55.3091 55.7293 55.4903 55.9018 55.6162C56.0743 55.7421 56.2847 55.8051 56.498 55.7947L74.9651 55.6217C75.2285 56.4543 75.6605 57.2237 76.2343 57.882C76.8081 58.5403 77.5113 59.0734 78.3001 59.448C80.2652 60.3406 82.5139 59.8908 84.5273 60.6035L83.5241 61.842C83.3736 62.0413 83.2923 62.2842 83.2923 62.5339C83.2923 62.7836 83.3736 63.0265 83.5241 63.2258C83.6214 63.3569 83.7437 63.4674 83.8839 63.551L89.4191 68.1315C89.4781 68.1777 89.5406 68.2194 89.606 68.256C89.7511 68.4112 89.9498 68.5054 90.1618 68.5195C90.3737 68.5337 90.5832 68.4667 90.7476 68.3321C92.7213 66.8269 94.4669 65.0441 95.93 63.039C97.4038 61.1293 99.3896 58.9844 100.338 56.7495C100.381 56.6438 100.407 56.5316 100.414 56.4174C100.442 56.2267 100.415 56.0316 100.336 55.856C100.256 55.6803 100.127 55.5317 99.9639 55.428ZM94.7815 61.2124C93.4495 63.0395 91.8814 64.682 90.118 66.0973L85.6413 62.3817C88.2221 59.1712 90.8998 56.0507 93.4737 52.8333C94.1657 53.4007 94.8576 54.0372 95.5495 54.653C96.3669 55.3731 97.2289 56.041 98.1303 56.6527C97.3484 58.2441 95.8055 59.8285 94.7815 61.1916V61.2124Z" fill="#003125"/>
</g>
</g>
<defs>
<clipPath id="clip0_1209_12206">
<rect width="99.566" height="83.0409" fill="white" transform="translate(0.861572 0.0703125)"/>
</clipPath>
<clipPath id="clip1_1209_12206">
<rect width="99.566" height="83.0293" fill="white" transform="translate(0.861572 0.0756836)"/>
</clipPath>
</defs>
</svg>
