<svg width="26" height="26" viewBox="0 0 26 26" fill="none" xmlns="http://www.w3.org/2000/svg">
<path d="M20.4059 8.96626L13.1734 15.6682C13.0156 15.8152 12.8061 15.894 12.5906 15.8875C12.375 15.881 12.1706 15.7897 12.0219 15.6335L5.20571 8.51015C5.05606 8.35396 4.85105 8.2628 4.63484 8.25629C4.41863 8.24978 4.20851 8.32845 4.04973 8.47535C3.97157 8.5471 3.90855 8.63376 3.8644 8.73024C3.82025 8.82672 3.79586 8.93107 3.79267 9.03712C3.78948 9.14317 3.80755 9.24879 3.84581 9.34775C3.88408 9.44672 3.94176 9.53702 4.01547 9.61333L10.8302 16.7366C11.2791 17.2047 11.8938 17.4779 12.5421 17.4975C13.1904 17.517 13.8204 17.2812 14.2966 16.841L21.5275 10.1405C21.6059 10.0688 21.6691 9.98203 21.7134 9.88542C21.7577 9.7888 21.7822 9.68429 21.7854 9.57805C21.7886 9.47182 21.7705 9.36602 21.7321 9.26692C21.6937 9.16781 21.6358 9.07741 21.5618 9.00107C21.4122 8.84488 21.2072 8.75371 20.991 8.7472C20.7748 8.74069 20.5646 8.81936 20.4059 8.96626Z" fill="white"/>
</svg>
