<svg width="101" height="87" viewBox="0 0 101 87" fill="none" xmlns="http://www.w3.org/2000/svg">
<g clip-path="url(#clip0_1209_12176)">
<g clip-path="url(#clip1_1209_12176)">
<g clip-path="url(#clip2_1209_12176)">
<path d="M68.8299 19.7876C68.8925 24.3468 68.0487 28.8731 66.3473 33.1034C64.6459 37.3338 62.1209 41.1839 58.919 44.4301C55.717 47.6764 51.902 50.2541 47.6954 52.0134C43.4889 53.7728 38.9746 54.6788 34.415 54.6788C29.8553 54.6788 25.3411 53.7728 21.1345 52.0134C16.928 50.2541 13.1129 47.6764 9.91098 44.4301C6.70905 41.1839 4.18405 37.3338 2.48266 33.1034C0.781273 28.8731 -0.062594 24.3468 7.77126e-05 19.7876" fill="#EFA63A"/>
<path d="M97.1352 53.2882C95.4316 52.3193 93.6954 51.396 91.9332 50.4791C92.1413 49.6923 92.707 48.9965 92.4469 47.0197C91.7966 42.0908 90.7367 37.2659 89.7158 32.3824C89.0655 29.3197 88.916 23.8836 86.3605 21.6597C84.5593 20.0991 82.1663 21.0549 81.0934 22.9602C79.8969 25.106 79.9489 28.0582 80.3651 30.7633C79.6043 29.8139 78.85 28.8515 78.1217 27.8761C76.8212 26.1465 75.7288 24.2932 74.1486 22.8041C72.2434 21.0159 68.9986 19.5008 67.3144 22.4985C65.9359 24.9565 67.3664 28.3053 69.0311 31.1209C64.4793 28.3183 58.9781 25.9189 57.9767 31.1729L54.5889 29.1702C54.3182 29.0949 54.0565 28.9902 53.8086 28.858C50.4402 28.0907 47.1174 27.1479 43.6971 26.6472C43.5116 26.603 43.3173 26.6134 43.1376 26.6772C42.9579 26.741 42.8005 26.8553 42.6843 27.0066C42.5682 27.1578 42.4982 27.3393 42.4829 27.5294C42.4676 27.7195 42.5076 27.9099 42.5981 28.0777C44.1002 30.6788 45.1992 33.4684 46.7468 36.0499C46.8064 36.2784 46.9475 36.4773 47.1434 36.6091C49.5429 38.2933 52.0399 39.7303 54.5759 41.1609C53.7175 43.3458 53.646 45.9923 53.568 48.2097C53.4314 52.2153 53.4769 56.2274 53.5095 60.233C53.5788 68.708 53.8693 77.1613 54.3808 85.593C54.4588 86.8415 56.4096 86.8545 56.3316 85.593C55.8981 77.985 55.6163 70.3705 55.4862 62.7495C55.4342 58.939 55.4342 55.1284 55.4862 51.3179C55.4612 49.2836 55.5502 47.2494 55.7528 45.225C55.8404 44.3093 56.0036 43.4023 56.2405 42.5134C56.6827 41.0569 58.4904 36.6611 61.124 41.9217C61.8067 43.2807 61.4361 46.1289 61.5141 47.6635C61.6052 49.3607 61.6442 51.0773 61.8523 52.7615C62.1124 54.8228 62.6781 56.8906 64.1347 58.4513C67.8476 62.4243 72.8156 59.6282 75.6832 56.2404C75.7796 56.1649 75.8611 56.0723 75.9238 55.9673L75.9694 55.8957L76.0214 55.8307C76.074 55.7653 76.1178 55.6931 76.1514 55.6161C76.3322 55.3681 76.5253 55.1294 76.7302 54.9008C80.04 56.8516 83.3888 58.6984 86.7766 60.4736C84.2276 64.7783 80.4886 67.828 77.491 71.775C74.4933 75.7221 73.9145 80.1634 74.6883 85.0988C74.8769 86.3343 76.7627 85.8141 76.5676 84.5851C75.6052 78.4532 77.5235 74.3175 81.6851 69.9543C84.2862 67.2362 86.6466 64.6157 88.5193 61.3709C89.046 61.6375 89.5727 61.9171 90.0995 62.1772C91.5625 62.9185 93.884 64.4206 95.5876 64.2581C98.0781 64.024 100.419 60.1874 100.673 57.9376C100.926 55.6877 98.8389 54.2506 97.1352 53.2882ZM92.0437 60.9743C91.7316 60.8312 91.3935 60.6881 91.1139 60.5321C91.9499 58.1709 93.1861 55.9713 94.7683 54.0295L95.5876 54.4977C94.2215 56.5501 93.0358 58.7171 92.0437 60.9743ZM82.5825 24.5208C84.3902 22.9255 85.461 22.9125 85.7948 24.4818C86.0827 25.0677 86.3009 25.6853 86.445 26.322C86.7961 27.5445 87.0042 28.8255 87.2643 30.0675C88.0446 33.8065 88.89 37.539 89.5858 41.2975C88.0707 39.3922 86.2044 37.669 84.7088 35.9523C84.1561 35.3021 83.6034 34.6518 83.0572 34.0016C82.4719 31.7582 81.282 26.8552 82.5825 24.5208ZM71.398 23.0837C72.4645 23.1813 74.2267 25.7953 74.7404 26.4911C75.7938 27.9217 76.8082 29.3717 77.8941 30.7698C79.7604 33.1692 81.7241 35.4907 83.7464 37.7796C85.0469 39.2426 86.7506 40.8163 88.1357 42.5525L87.8691 42.3899C83.4473 39.7433 78.811 37.3959 74.4413 34.6843C74.0771 34.4567 73.6284 34.1511 73.1407 33.8065C72.1849 32.3434 71.2745 30.8543 70.4682 29.3067C70.0765 28.5744 69.7354 27.8162 69.4473 27.0373C69.0837 26.2362 68.891 25.368 68.8815 24.4883C68.8815 24.4883 68.8685 22.0628 71.398 23.0837ZM71.5281 34.9444C71.6406 35.0792 71.7896 35.1786 71.9573 35.2306C73.4724 36.2515 74.7144 37.1228 75.3321 37.4674C77.8616 38.8655 80.3911 40.2375 82.8816 41.7136C85.8273 43.4498 90.8993 45.303 90.171 49.5167C88.2202 48.5023 86.2694 47.4879 84.3837 46.4345C76.0799 41.8957 67.9322 37.0968 59.7844 32.2784C60.2851 27.8891 66.9763 31.8947 71.5281 34.9444ZM51.8513 32.8636C50.8499 32.7271 49.6209 32.6165 49.1137 33.3513C48.926 33.654 48.8652 34.0185 48.9446 34.3657C49.0032 34.8209 49.0812 35.2371 49.1332 35.6662L48.483 35.2306C48.4683 35.1904 48.451 35.1513 48.4309 35.1135C47.7352 33.943 47.1304 32.7271 46.5322 31.5046C46.5577 31.4655 46.5795 31.4242 46.5972 31.381C46.8703 30.7308 47.1889 30.0805 47.5271 29.4303C49.0357 29.7749 50.5378 30.152 52.0789 30.5162C51.9748 31.277 51.9163 32.0703 51.8513 32.8636ZM74.3177 54.9724C72.8806 56.7606 71.0339 58.6919 68.5499 58.5813C65.2011 58.4383 64.0501 55.1219 63.738 52.3843C63.5234 50.5051 63.5169 48.5999 63.4584 46.6946C67.2559 49.1786 71.1141 51.5889 75.033 53.9255C74.7794 54.2506 74.5388 54.5887 74.3177 54.9529V54.9724ZM63.725 44.4967C63.6184 44.4252 63.4993 44.3745 63.3739 44.3472C63.3153 43.5734 63.2373 42.7931 63.1073 42.0257C62.4245 37.9942 58.1393 36.0434 55.5318 39.5288C54.0557 38.6899 52.5926 37.8446 51.1555 36.9277C51.167 36.1952 51.106 35.4634 50.9734 34.7429C51.5717 34.7429 52.2089 34.8729 52.7421 34.9119C52.9993 34.9069 53.2445 34.8026 53.4263 34.6207C53.6082 34.4389 53.7125 34.1937 53.7175 33.9365L53.9711 31.0949C61.6312 35.6467 69.2912 40.1985 77.0358 44.5618C80.9373 46.7726 84.8692 48.9402 88.8315 51.0643C90.1775 51.7861 91.6276 52.4364 93.0516 53.1387C91.4909 55.0983 90.2509 57.2931 89.3777 59.6412C87.9601 58.8869 86.5621 58.1001 85.164 57.3393C77.8161 53.3337 70.6567 49.0875 63.725 44.4967ZM97.6229 60.0379C96.2574 62.2032 95.5486 62.4568 93.8124 61.7741C94.7578 59.6147 95.896 57.545 97.2133 55.5901C98.9495 56.9036 98.6894 58.3537 97.6229 60.0379Z" fill="#112F25"/>
<path d="M23.0645 34.171C20.0853 35.1196 16.9176 35.3162 13.8439 34.7432C10.3455 34.0345 8.49226 32.0772 7.52988 28.6568C7.12364 27.3304 6.99254 25.935 7.1446 24.5561C7.29666 23.1772 7.72869 21.8438 8.41421 20.6378C9.09972 19.4317 10.0243 18.3784 11.1313 17.5423C12.2382 16.7061 13.5042 16.1048 14.8518 15.7752C17.4753 15.1344 20.2356 15.3579 22.7219 16.4123C25.2081 17.4668 27.2874 19.296 28.6502 21.6275C31.4529 26.6996 28.8843 33.8004 22.5768 34.1255C21.3283 34.1905 21.3218 36.1413 22.5768 36.0763C28.8583 35.7511 33.0785 29.4957 31.4854 23.4743C29.6646 16.601 22.1672 12.4849 15.333 13.6879C8.36871 14.9104 3.69986 21.7381 5.50758 28.6243C6.3334 31.7846 7.86801 34.7432 11.0543 35.9657C15.0208 37.5263 19.5987 37.2272 23.6042 36.0568C24.8072 35.7056 24.2935 33.8199 23.084 34.171H23.0645Z" fill="#112F25"/>
<path d="M12.7188 24.0263L17.5567 28.1945C17.663 28.2979 17.7914 28.3758 17.9322 28.4225C18.073 28.4692 18.2225 28.4833 18.3696 28.4639C18.5166 28.4445 18.6574 28.3921 18.7812 28.3105C18.9051 28.2289 19.0089 28.1203 19.0848 27.9929C23.499 18.3379 29.8385 9.68607 37.7147 2.5678C38.6185 1.72897 37.24 0.350419 36.3101 1.18925C28.3101 8.41972 21.8692 17.2061 17.3811 27.011L18.9157 26.8094L14.0973 22.6478C13.1544 21.8349 11.7629 23.207 12.7188 24.0263Z" fill="#112F25"/>
<path d="M10.7093 49.6978C17.9098 54.6615 25.3141 59.2913 32.9221 63.5873C33.1448 63.7066 33.405 63.7348 33.648 63.666C33.8911 63.5973 34.098 63.4369 34.2252 63.2187C34.3524 63.0005 34.39 62.7415 34.3301 62.4961C34.2702 62.2508 34.1174 62.0382 33.904 61.9032C26.296 57.6028 18.896 52.973 11.7042 48.0137C10.6703 47.2984 9.69489 48.9891 10.7223 49.6978H10.7093Z" fill="#112F25"/>
<path d="M28.4486 46.6815C23.6106 52.317 18.5473 57.7359 13.2585 62.9379C12.3612 63.8223 13.7462 65.2008 14.6371 64.3165C19.9215 59.1144 24.9848 53.6956 29.8271 48.06C30.6464 47.0976 29.2614 45.7321 28.4486 46.6815Z" fill="#112F25"/>
</g>
</g>
</g>
<defs>
<clipPath id="clip0_1209_12176">
<rect width="100.692" height="85.723" fill="white" transform="translate(0 0.92334)"/>
</clipPath>
<clipPath id="clip1_1209_12176">
<rect width="100.692" height="85.723" fill="white" transform="translate(0 0.92334)"/>
</clipPath>
<clipPath id="clip2_1209_12176">
<rect width="100.692" height="85.7105" fill="white" transform="translate(0 0.929199)"/>
</clipPath>
</defs>
</svg>
