<svg width="37" height="31" viewBox="0 0 37 31" fill="none" xmlns="http://www.w3.org/2000/svg">
<path d="M13.501 3.00003C13.501 2.20437 13.8171 1.4413 14.3797 0.878688C14.9423 0.316074 15.7054 0 16.501 0C17.2967 0 18.0597 0.316074 18.6224 0.878688C19.185 1.4413 19.501 2.20437 19.501 3.00003C19.501 3.79569 19.185 4.55876 18.6224 5.12137C18.0597 5.68398 17.2967 6.00006 16.501 6.00006C15.7054 6.00006 14.9423 5.68398 14.3797 5.12137C13.8171 4.55876 13.501 3.79569 13.501 3.00003ZM1.11336 12.4251C1.43211 11.6626 2.30712 11.3001 3.07588 11.6189L4.29464 12.1251L5.7259 9.74384C6.74466 8.03758 8.58218 7.00007 10.5635 7.00007C13.776 7.00007 16.626 9.05634 17.6448 12.1064L19.8073 18.5877L24.7636 20.6565L26.9011 17.8064C27.3011 17.2752 27.9386 16.9752 28.6011 17.0064C29.2636 17.0377 29.8699 17.4064 30.2136 17.9752L36.2137 27.9753C36.5825 28.594 36.595 29.3628 36.2387 29.9878C35.8825 30.6128 35.2199 31.0003 34.5012 31.0003H18.501C17.8073 31.0003 17.1635 30.644 16.801 30.0503C16.4385 29.4565 16.401 28.7253 16.7135 28.1065L17.7135 26.1065C18.051 25.4315 18.7448 25.0002 19.501 25.0002H21.5011L22.9073 23.1252L1.92587 14.3876C1.16336 14.0689 0.800857 13.1939 1.11961 12.4251H1.11336ZM6.28841 18.1627L13.2885 21.1627C14.026 21.4752 14.501 22.2002 14.501 23.0002V29.0003C14.501 30.1065 13.6072 31.0003 12.501 31.0003C11.3947 31.0003 10.501 30.1065 10.501 29.0003V24.319L6.71341 22.694L4.40089 29.6315C4.05089 30.6816 2.91963 31.2441 1.86962 30.8941C0.819607 30.544 0.257101 29.4128 0.600855 28.369L3.60088 19.3689L4.28839 17.3064L6.28841 18.1627Z" fill="#002353"/>
</svg>
