<svg width="29" height="29" viewBox="0 0 29 29" fill="none" xmlns="http://www.w3.org/2000/svg">
<path d="M0 14.0107C0 21.7486 6.2728 28.0214 14.0107 28.0214C21.7486 28.0214 28.0214 21.7486 28.0214 14.0107C28.0214 6.2728 21.7486 0 14.0107 0C6.2728 0 0 6.2728 0 14.0107Z" fill="#002353"/>
<path d="M21.0161 14.0112C21.0161 10.1583 17.8637 7.00586 14.0107 7.00586C10.1578 7.00586 7.00537 10.1583 7.00537 14.0112C7.00537 17.5139 9.54481 20.4036 12.8723 20.929V16.0252H11.121V14.0112H12.8723V12.435C12.8723 10.6837 13.9232 9.72043 15.4994 9.72043C16.2875 9.72043 17.0756 9.89557 17.0756 9.89557V11.6469H16.1999C15.3242 11.6469 15.0615 12.1723 15.0615 12.6977V14.0112H16.988L16.6377 16.0252H14.974V21.0166C18.4766 20.4912 21.0161 17.5139 21.0161 14.0112Z" fill="white"/>
</svg>
