<svg width="38" height="32" viewBox="0 0 38 32" fill="none" xmlns="http://www.w3.org/2000/svg">
<path d="M14.4737 23.5197L3.3649 31.5099L0.967817 28.1773L12.0766 20.187L13.5854 20.4334L14.2044 20.005C12.6346 17.4429 12.0385 14.4017 12.525 11.4365C13.0626 8.144 14.8861 5.19991 17.5944 3.2519C20.3027 1.30389 23.6739 0.511529 26.9665 1.04913C30.259 1.58674 33.203 3.41027 35.1511 6.11856C37.0991 8.82686 37.8914 12.1981 37.3538 15.4906C36.8162 18.7831 34.9927 21.7272 32.2844 23.6752C29.5761 25.6232 26.2049 26.4156 22.9124 25.878C19.8374 25.3759 17.1947 23.7875 15.3231 21.5603L14.7201 22.0108L14.4737 23.5197ZM34.489 15.0228L34.6032 13.963C33.6849 13.3425 32.1195 12.3614 30.1601 11.512L29.2682 16.9743C31.396 16.7924 33.1921 16.3601 34.2601 16.0639C34.3736 15.7295 34.4297 15.3857 34.489 15.0228ZM28.3639 22.5131C30.5367 21.7022 32.3406 20.1291 33.4396 18.0868C32.3525 18.3799 30.7852 18.7319 28.9564 18.8843L28.3639 22.5131ZM31.0645 5.97327L30.472 9.60209C32.1574 10.3283 33.5313 11.1605 34.4687 11.7841C34.0764 9.49837 32.8665 7.43317 31.0645 5.97327ZM26.4987 3.914C25.5437 3.75807 24.5065 3.74558 23.5621 3.8855L22.8947 7.9727L25.797 8.21129L28.6244 8.90826L29.2918 4.82105C28.4409 4.388 27.4536 4.06992 26.4987 3.914ZM20.587 22.106C21.4379 22.5391 22.4252 22.8572 23.3802 23.0131C24.3351 23.169 25.3723 23.1815 26.3167 23.0416L26.9841 18.9544C25.0367 18.948 23.1027 18.6322 21.2544 18.0188L20.587 22.106ZM28.3126 10.8182L25.4852 10.1212L22.5829 9.88261L21.5662 16.1089C23.4145 16.7223 25.3486 17.0381 27.296 17.0445L28.3126 10.8182ZM15.3899 11.9043C15.3337 12.2481 15.2776 12.5918 15.2819 12.9259C16.1971 13.5655 17.7593 14.5657 19.7187 15.4151L20.6106 9.95274C18.4828 10.1347 16.6836 10.5861 15.6124 10.9014L15.3899 11.9043ZM18.8143 20.9538L19.4068 17.325C17.7214 16.5988 16.3475 15.7666 15.4101 15.143C15.8024 17.4287 17.0123 19.4939 18.8143 20.9538ZM21.515 4.41401C19.3422 5.2249 17.5382 6.798 16.4392 8.84025C17.5263 8.54715 19.0936 8.19521 20.9224 8.04283L21.515 4.41401Z" fill="#002353"/>
</svg>
