<svg width="52" height="57" viewBox="0 0 52 57" fill="none" xmlns="http://www.w3.org/2000/svg">
<g clip-path="url(#clip0_1246_13504)">
<path d="M0.196289 6.30371C0.196289 16.2079 5.91874 25.2318 14.8692 29.487V83.3366H22.2057V57.659H29.5422V83.3366H36.8786V29.4503C45.8291 25.2318 51.5516 16.2079 51.5516 6.30371H44.2151C44.2151 11.1681 42.2827 15.8332 38.8431 19.2729C37.14 20.976 35.118 22.327 32.8928 23.2487C30.6675 24.1705 28.2825 24.6449 25.8739 24.6449C21.0096 24.6449 16.3444 22.7125 12.9048 19.2729C9.46513 15.8332 7.53276 11.1681 7.53276 6.30371M25.8739 6.30371C21.8022 6.30371 18.5375 9.56844 18.5375 13.6402C18.5375 17.7119 21.8022 20.9767 25.8739 20.9767C29.9457 20.9767 33.2104 17.7119 33.2104 13.6402C33.2104 9.56844 29.9457 6.30371 25.8739 6.30371Z" fill="#B0BBCA"/>
</g>
<defs>
<clipPath id="clip0_1246_13504">
<rect width="51.7473" height="55.8993" fill="white" transform="translate(0 0.5)"/>
</clipPath>
</defs>
</svg>
