<svg width="29" height="29" viewBox="0 0 29 29" fill="none" xmlns="http://www.w3.org/2000/svg">
<path d="M0.251221 14.0107C0.251221 21.7486 6.52402 28.0214 14.2619 28.0214C21.9998 28.0214 28.2726 21.7486 28.2726 14.0107C28.2726 6.2728 21.9998 0 14.2619 0C6.52402 0 0.251221 6.2728 0.251221 14.0107Z" fill="#002353"/>
<path d="M14.2619 8.05667C16.1884 8.05667 16.4511 8.05667 17.2392 8.05667C17.9398 8.05667 18.29 8.2318 18.5527 8.31937C18.903 8.4945 19.1657 8.58207 19.4284 8.84477C19.6911 9.10747 19.8662 9.37017 19.9538 9.72044C20.0414 9.98314 20.1289 10.3334 20.2165 11.0339C20.2165 11.822 20.2165 11.9972 20.2165 14.0112C20.2165 16.0252 20.2165 16.2004 20.2165 16.9885C20.2165 17.689 20.0414 18.0393 19.9538 18.302C19.7787 18.6523 19.6911 18.915 19.4284 19.1777C19.1657 19.4404 18.903 19.6155 18.5527 19.7031C18.29 19.7906 17.9398 19.8782 17.2392 19.9658C16.4511 19.9658 16.276 19.9658 14.2619 19.9658C12.2479 19.9658 12.0728 19.9658 11.2847 19.9658C10.5841 19.9658 10.2339 19.7906 9.97117 19.7031C9.6209 19.5279 9.3582 19.4404 9.0955 19.1777C8.8328 18.915 8.65767 18.6523 8.5701 18.302C8.48253 18.0393 8.39497 17.689 8.3074 16.9885C8.3074 16.2004 8.3074 16.0252 8.3074 14.0112C8.3074 11.9972 8.3074 11.822 8.3074 11.0339C8.3074 10.3334 8.48253 9.98314 8.5701 9.72044C8.74523 9.37017 8.8328 9.10747 9.0955 8.84477C9.3582 8.58207 9.6209 8.40693 9.97117 8.31937C10.2339 8.2318 10.5841 8.14423 11.2847 8.05667C12.0728 8.05667 12.3355 8.05667 14.2619 8.05667ZM14.2619 6.74316C12.2479 6.74316 12.0728 6.74316 11.2847 6.74316C10.4966 6.74316 9.97117 6.9183 9.53334 7.09343C9.0955 7.26857 8.65767 7.53127 8.21983 7.9691C7.782 8.40693 7.60686 8.7572 7.34416 9.2826C7.16903 9.72044 7.08146 10.2458 6.9939 11.0339C6.9939 11.822 6.9939 12.0847 6.9939 14.0112C6.9939 16.0252 6.9939 16.2004 6.9939 16.9885C6.9939 17.7766 7.16903 18.302 7.34416 18.7398C7.5193 19.1777 7.782 19.6155 8.21983 20.0533C8.65767 20.4912 9.00793 20.6663 9.53334 20.929C9.97117 21.1041 10.4966 21.1917 11.2847 21.2793C12.0728 21.2793 12.3355 21.2793 14.2619 21.2793C16.1884 21.2793 16.4511 21.2793 17.2392 21.2793C18.0273 21.2793 18.5527 21.1041 18.9906 20.929C19.4284 20.7539 19.8662 20.4912 20.3041 20.0533C20.7419 19.6155 20.917 19.2652 21.1797 18.7398C21.3549 18.302 21.4424 17.7766 21.53 16.9885C21.53 16.2004 21.53 15.9377 21.53 14.0112C21.53 12.0847 21.53 11.822 21.53 11.0339C21.53 10.2458 21.3549 9.72044 21.1797 9.2826C21.0046 8.84477 20.7419 8.40693 20.3041 7.9691C19.8662 7.53127 19.516 7.35613 18.9906 7.09343C18.5527 6.9183 18.0273 6.83073 17.2392 6.74316C16.4511 6.74316 16.276 6.74316 14.2619 6.74316Z" fill="white"/>
<path d="M14.2619 10.2458C12.1603 10.2458 10.4966 11.9096 10.4966 14.0112C10.4966 16.1128 12.1603 17.7766 14.2619 17.7766C16.3635 17.7766 18.0273 16.1128 18.0273 14.0112C18.0273 11.9096 16.3635 10.2458 14.2619 10.2458ZM14.2619 16.4631C12.9484 16.4631 11.8101 15.4123 11.8101 14.0112C11.8101 12.6977 12.8609 11.5593 14.2619 11.5593C15.5754 11.5593 16.7138 12.6101 16.7138 14.0112C16.7138 15.3247 15.5754 16.4631 14.2619 16.4631Z" fill="white"/>
<path d="M18.1149 11.0339C18.5985 11.0339 18.9906 10.6419 18.9906 10.1583C18.9906 9.67465 18.5985 9.2826 18.1149 9.2826C17.6313 9.2826 17.2392 9.67465 17.2392 10.1583C17.2392 10.6419 17.6313 11.0339 18.1149 11.0339Z" fill="white"/>
</svg>
