<svg width="29" height="29" viewBox="0 0 29 29" fill="none" xmlns="http://www.w3.org/2000/svg">
<path d="M0.876953 14.0107C0.876953 21.7486 7.14976 28.0214 14.8876 28.0214C22.6255 28.0214 28.8983 21.7486 28.8983 14.0107C28.8983 6.2728 22.6255 0 14.8876 0C7.14976 0 0.876953 6.2728 0.876953 14.0107Z" fill="#002353"/>
<path d="M11.0347 21.0166H8.05746V11.6469H11.0347V21.0166ZM9.5461 10.3334C8.58286 10.3334 7.88232 9.63286 7.88232 8.66963C7.88232 7.70639 8.67043 7.00586 9.5461 7.00586C10.5093 7.00586 11.2099 7.70639 11.2099 8.66963C11.2099 9.63286 10.5093 10.3334 9.5461 10.3334ZM21.893 21.0166H18.9158V15.9377C18.9158 14.449 18.3028 14.0112 17.4271 14.0112C16.5514 14.0112 15.6758 14.7117 15.6758 16.0252V21.0166H12.6985V11.6469H15.5006V12.9604C15.7633 12.3474 16.8141 11.3842 18.3028 11.3842C19.9665 11.3842 21.7179 12.3474 21.7179 15.2371V21.0166H21.893Z" fill="white"/>
</svg>
