<svg width="103" height="104" viewBox="0 0 103 104" fill="none" xmlns="http://www.w3.org/2000/svg">
<path d="M80.1804 52.6953L85.7076 62.2633C86.8159 64.1829 87.3994 66.3605 87.3994 68.577C87.3994 70.7936 86.816 72.9711 85.7077 74.8907C84.5995 76.8104 83.0054 78.4044 81.0859 79.5128C79.1663 80.6211 76.9888 81.2046 74.7722 81.2047H67.3328V90.2243L49.2934 77.5968L67.3328 64.9692V73.9889H74.7722C75.7222 73.9889 76.6554 73.7388 77.4781 73.2638C78.3007 72.7888 78.9839 72.1056 79.4589 71.283C79.9338 70.4603 80.1839 69.527 80.1839 68.5771C80.1839 67.6271 79.9338 66.6939 79.4588 65.8712L73.9316 56.3031L80.1804 52.6953ZM35.9623 42.0015L37.8745 63.9374L30.0635 59.4276L26.3474 65.8712C25.8725 66.6936 25.6225 67.6265 25.6223 68.5762C25.6222 69.5258 25.8719 70.4588 26.3464 71.2814C26.821 72.104 27.5036 72.7872 28.3258 73.2625C29.148 73.7377 30.0807 73.9883 31.0304 73.9889H42.0777V81.2047H31.0304C28.8135 81.2052 26.6355 80.6222 24.7155 79.5141C22.7954 78.4061 21.2008 76.812 20.0921 74.8923C18.9835 72.9726 18.3997 70.7948 18.3996 68.5779C18.3994 66.3611 18.9829 64.1832 20.0913 62.2633L23.811 55.8161L16 51.3098L35.9623 42.0015ZM59.2187 19.759C61.1368 20.8678 62.7295 22.4617 63.8367 24.3807L67.5601 30.8244L75.3711 26.3145L73.4553 48.2504L53.5002 38.9421L61.3112 34.4322L57.5915 27.9886C57.1165 27.1659 56.4333 26.4828 55.6107 26.0079C54.788 25.5329 53.8548 25.2829 52.9049 25.2829C51.955 25.2829 51.0218 25.5329 50.1991 26.0079C49.3764 26.4828 48.6933 27.1659 48.2183 27.9886L42.6874 37.5603L36.4386 33.9524L41.9658 24.3807C43.6404 21.4815 46.3978 19.366 49.6318 18.4993C52.8657 17.6326 56.3115 18.0857 59.2115 19.759" fill="#B0BBCA"/>
</svg>
