<svg width="102" height="87" viewBox="0 0 102 87" fill="none" xmlns="http://www.w3.org/2000/svg">
<g clip-path="url(#clip0_1209_12219)">
<g clip-path="url(#clip1_1209_12219)">
<g clip-path="url(#clip2_1209_12219)">
<path d="M94.1445 21.3496C94.2117 26.09 93.3361 30.7964 91.5686 35.1954C89.801 39.5944 87.1768 43.5983 83.8483 46.9742C80.5199 50.3502 76.5537 53.031 72.1802 54.8607C67.8067 56.6905 63.1132 57.6327 58.3723 57.6327C53.6315 57.6327 48.9379 56.6905 44.5644 54.8607C40.1909 53.031 36.2247 50.3502 32.8963 46.9742C29.5679 43.5983 26.9436 39.5944 25.1761 35.1954C23.4085 30.7964 22.5329 26.09 22.6002 21.3496" fill="#52933A"/>
<path d="M71.7019 30.991C71.3996 29.9332 72.9898 29.2713 73.2705 30.5377C73.4935 31.5666 72.076 31.6961 71.6731 30.9334C71.0183 29.703 69.1547 30.7895 69.8094 32.0199C70.1677 32.6418 70.727 33.1232 71.3953 33.3848C72.0637 33.6463 72.8011 33.6725 73.4863 33.459C74.2005 33.2173 74.7914 32.705 75.1318 32.0322C75.4722 31.3594 75.5351 30.5799 75.3068 29.8613C75.1058 29.1198 74.6208 28.4873 73.9569 28.1008C73.2929 27.7142 72.5035 27.6048 71.7594 27.7962C70.9783 28.0323 70.3181 28.5603 69.9161 29.2705C69.5141 29.9807 69.4012 30.8185 69.6008 31.6098C69.6957 31.8643 69.8826 32.074 70.1245 32.1975C70.3664 32.3211 70.6458 32.3496 70.9077 32.2773C71.1695 32.2051 71.3948 32.0374 71.5392 31.8073C71.6835 31.5772 71.7364 31.3013 71.6875 31.0342L71.7019 30.991Z" fill="#112F25"/>
<path d="M90.9641 37.0346C91.8605 37.3189 92.8312 37.2546 93.6822 36.8544C94.5332 36.4542 95.2019 35.7477 95.5548 34.876C95.8534 34.0378 95.8111 33.1158 95.437 32.3085C95.0629 31.5011 94.3869 30.8728 93.5544 30.5587C92.762 30.1859 91.8543 30.1416 91.0294 30.4355C90.2044 30.7293 89.5291 31.3375 89.1508 32.1273C88.776 32.9293 88.6983 33.8384 88.9315 34.6925C89.1648 35.5465 89.6939 36.2898 90.4244 36.79C91.5829 37.5599 92.6694 35.6962 91.5181 34.9263C90.3668 34.1564 91.1799 31.8827 92.7198 32.5374C94.533 33.3074 93.1587 35.5667 91.5397 34.9623C90.2373 34.473 89.6761 36.5597 90.9641 37.0418V37.0346Z" fill="#112F25"/>
<path d="M66.7009 17.1404C66.5955 16.699 66.6667 16.2339 66.8992 15.8441C67.1317 15.4543 67.5072 15.1708 67.9457 15.0538C68.1371 15.0255 68.3322 15.0362 68.5194 15.085C68.7066 15.1339 68.882 15.22 69.0351 15.3383C69.1883 15.4565 69.316 15.6044 69.4107 15.7731C69.5054 15.9418 69.5651 16.1279 69.5862 16.3202C70.0108 18.1478 67.4636 18.5867 66.7081 17.1476C66.0605 15.9244 64.1968 17.0109 64.8444 18.2413C65.2912 19.0116 65.988 19.6059 66.8192 19.9253C67.6505 20.2447 68.5659 20.27 69.4135 19.997C69.853 19.8527 70.2592 19.6222 70.6086 19.3191C70.958 19.016 71.2435 18.6464 71.4484 18.2318C71.6534 17.8171 71.7737 17.3658 71.8024 16.9042C71.8311 16.4426 71.7675 15.9798 71.6153 15.5431C71.3653 14.643 70.7751 13.8755 69.9694 13.4028C69.1637 12.9301 68.2057 12.7894 67.2981 13.0103C66.3392 13.3076 65.5309 13.9613 65.0396 14.8368C64.5484 15.7122 64.4115 16.7428 64.6574 17.7161C64.7402 17.9843 64.9243 18.2096 65.1706 18.3444C65.4169 18.4791 65.706 18.5125 65.9765 18.4376C66.247 18.3628 66.4778 18.1854 66.6197 17.9432C66.7617 17.701 66.8037 17.4131 66.7368 17.1404H66.7009Z" fill="#112F25"/>
<path d="M97.4255 19.4352C98.1784 19.6727 98.9933 19.6161 99.7061 19.2771C100.419 18.938 100.977 18.3415 101.268 17.6076C101.516 16.9009 101.479 16.1253 101.165 15.4455C100.85 14.7657 100.283 14.2352 99.5842 13.9667C98.9166 13.6606 98.156 13.6269 97.464 13.8728C96.772 14.1187 96.2032 14.6248 95.8785 15.2835C95.5594 15.9604 95.4928 16.7291 95.6907 17.4509C95.8886 18.1727 96.338 18.7999 96.9578 19.2194C98.1163 19.9893 99.1956 18.1257 98.0443 17.3557C97.3248 16.8665 97.8429 15.5425 98.7639 15.9167C99.8864 16.4131 98.9726 17.6867 98.0084 17.3557C96.706 16.8665 96.1447 18.9531 97.4399 19.4352H97.4255Z" fill="#112F25"/>
<path d="M98.0012 18.7876L93.3889 31.984" stroke="#112F25" stroke-width="2.15863" stroke-miterlimit="10"/>
<path d="M71.0757 17.428C79.5879 18.0108 88.1001 16.9675 96.6195 17.5503C98.0083 17.6439 98.0011 15.4852 96.6195 15.3917C88.1001 14.8089 79.5879 15.8522 71.0757 15.2694C69.687 15.1758 69.6942 17.3345 71.0757 17.428Z" fill="#112F25"/>
<path d="M67.8163 19.5657C68.3902 22.748 69.3169 25.8565 70.5794 28.8335C71.1046 30.0999 73.1913 29.553 72.6661 28.2578C71.392 25.2833 70.4578 22.1743 69.8814 18.9901C69.644 17.623 67.5645 18.2058 67.7947 19.5657H67.8163Z" fill="#112F25"/>
<path d="M74.0476 32.0561C79.117 33.4214 84.2772 34.4241 89.489 35.0566C90.8705 35.2221 90.8562 33.0635 89.489 32.898C84.4691 32.2736 79.4992 31.2974 74.616 29.9766C74.3458 29.9175 74.0631 29.9644 73.8265 30.1076C73.5898 30.2509 73.4172 30.4795 73.3442 30.7464C73.2713 31.0132 73.3036 31.2979 73.4345 31.5416C73.5654 31.7854 73.7848 31.9695 74.0476 32.0561Z" fill="#112F25"/>
<path d="M47.597 10.0017C48.3939 10.2539 49.2567 10.1953 50.0122 9.83756C50.7676 9.47987 51.3597 8.8496 51.6697 8.07334C51.9379 7.32683 51.9019 6.50477 51.5694 5.78457C51.2369 5.06437 50.6346 4.50378 49.8924 4.22377C49.1876 3.89216 48.3804 3.852 47.6462 4.11202C46.9119 4.37204 46.3099 4.91123 45.9709 5.6125C45.6337 6.32748 45.563 7.13937 45.7714 7.90188C45.9799 8.66439 46.4538 9.3274 47.1078 9.77146C48.2662 10.5414 49.3455 8.67776 48.1943 7.90784C47.3164 7.31062 47.9496 5.74921 49.0577 6.20252C50.3889 6.78535 49.3383 8.36116 48.1727 7.91504C46.8703 7.43294 46.3091 9.51243 47.597 10.0017Z" fill="#112F25"/>
<path d="M66.0822 14.7871C61.2828 12.0169 56.1237 9.93742 51.3243 7.16717C51.0772 7.02214 50.7825 6.98122 50.5052 7.05341C50.2279 7.1256 49.9907 7.305 49.8456 7.55213C49.7006 7.79926 49.6597 8.09389 49.7319 8.37119C49.8041 8.64849 49.9835 8.88576 50.2306 9.03079C55.0372 11.801 60.1891 13.8805 64.9957 16.6508C65.242 16.7827 65.53 16.8139 65.7989 16.7378C66.0679 16.6618 66.2968 16.4843 66.4376 16.2429C66.5783 16.0014 66.62 15.7148 66.5537 15.4433C66.4874 15.1718 66.3184 14.9366 66.0822 14.7871Z" fill="#112F25"/>
<path d="M46.0358 6.13106C40.8432 8.15584 35.4774 9.70443 30.0044 10.7577C28.6373 11.024 29.2201 13.1034 30.58 12.8444C36.0524 11.7853 41.418 10.2344 46.6115 8.21054C47.8923 7.71406 47.331 5.62738 46.0358 6.13106Z" fill="#112F25"/>
<path d="M26.7445 13.0022C26.6482 12.613 26.709 12.2016 26.9136 11.8569C27.1183 11.5121 27.4505 11.2619 27.8383 11.1601C28.0065 11.139 28.1773 11.1513 28.3408 11.1963C28.5042 11.2414 28.6572 11.3182 28.7909 11.4225C28.9246 11.5268 29.0364 11.6565 29.1199 11.8041C29.2034 11.9517 29.2569 12.1143 29.2773 12.2826C29.6515 13.8944 27.4065 14.2542 26.7373 13.0022C26.0682 11.7502 24.2261 12.8655 24.8737 14.0887C25.2961 14.8166 25.954 15.3787 26.7389 15.6822C27.5239 15.9857 28.3888 16.0125 29.191 15.758C29.6091 15.6217 29.9959 15.4033 30.3287 15.1158C30.6615 14.8283 30.9336 14.4773 31.1292 14.0834C31.3249 13.6895 31.44 13.2606 31.468 12.8216C31.4959 12.3827 31.4361 11.9427 31.2921 11.5271C31.0589 10.6629 30.4947 9.92542 29.7217 9.47426C28.9486 9.02309 28.029 8.89461 27.1619 9.11664C26.2567 9.39589 25.4921 10.01 25.0241 10.8336C24.5561 11.6573 24.42 12.6285 24.6435 13.549C24.7384 13.8035 24.9253 14.0132 25.1672 14.1368C25.4091 14.2603 25.6885 14.2888 25.9504 14.2166C26.2122 14.1443 26.4375 13.9766 26.5819 13.7465C26.7262 13.5164 26.7791 13.2406 26.7302 12.9734L26.7445 13.0022Z" fill="#112F25"/>
<path d="M67.2047 0.0512695C68.0394 1.00826 68.5359 1.81415 69.1979 2.26027C70.0556 2.65713 70.9597 2.9448 71.889 3.11653C71.1304 3.71508 70.4403 4.39558 69.8311 5.14565C69.4302 6.01435 69.1332 6.92727 68.946 7.86552C68.399 7.107 67.7638 6.41618 67.0536 5.80763C66.1925 5.38251 65.2878 5.05198 64.3553 4.82185C65.1044 4.25447 65.7831 3.59987 66.3773 2.87188C66.7874 2.2099 66.8666 1.25291 67.2047 0.0512695Z" fill="#112F25"/>
<path d="M82.3655 2.7417C82.735 3.2566 83.165 3.72527 83.6463 4.13762C84.1898 4.38851 84.7627 4.56983 85.3516 4.67727C84.8748 5.05602 84.4405 5.48547 84.0564 5.95806C83.8009 6.50665 83.6125 7.08406 83.4952 7.67778C83.1443 7.20909 82.7438 6.77967 82.3007 6.39699C81.7441 6.13602 81.1601 5.93811 80.5594 5.80696C81.0314 5.4459 81.4567 5.02778 81.8258 4.56215C82.079 3.9795 82.2602 3.36818 82.3655 2.7417Z" fill="#112F25"/>
<path d="M78.1058 42.5049C78.4024 43.189 78.7818 43.8342 79.2355 44.4261C79.8096 44.846 80.4331 45.194 81.0919 45.4622C80.4461 45.788 79.8381 46.1838 79.2786 46.6423C78.8518 47.2209 78.4967 47.8491 78.2209 48.5131C77.9276 47.8797 77.5605 47.2831 77.1272 46.7358C76.556 46.2934 75.9384 45.9147 75.2852 45.6061C75.9185 45.2934 76.5126 44.907 77.0552 44.4548C77.482 43.8491 77.8347 43.1945 78.1058 42.5049Z" fill="#112F25"/>
<path d="M27.7737 21.9463C29.0401 22.5003 29.8604 23.076 30.7527 23.1983C31.6449 23.3206 32.5875 22.9752 33.7963 22.7882C33.3266 23.7285 32.9622 24.7179 32.7098 25.7383C32.6019 26.6233 32.9185 27.5587 33.0984 28.8251C32.213 28.3399 31.2735 27.9607 30.2993 27.6954C29.2538 27.679 28.2095 27.7731 27.1837 27.9761C27.6512 27.0629 28.0064 26.0965 28.2414 25.0979C28.3422 24.2201 27.9968 23.2846 27.7737 21.9463Z" fill="#112F25"/>
<path d="M59.7719 43.223C57.7023 37.3217 55.3295 31.5313 52.6628 25.8748C52.5153 25.6413 52.2855 25.4718 52.019 25.3999C51.7524 25.3279 51.4686 25.3587 51.2237 25.4862L44.8629 28.5874C44.6582 28.7094 44.4989 28.8949 44.4093 29.1157C44.3197 29.3365 44.3046 29.5805 44.3664 29.8107C46.3955 35.2792 49.1442 40.4599 51.0726 45.9716C51.1531 46.2456 51.337 46.4776 51.5854 46.6186C51.8337 46.7596 52.1272 46.7985 52.4037 46.7272L59.0163 44.5182C60.3259 44.0792 59.7359 41.9926 58.4407 42.4387L51.8281 44.6621L53.1592 45.3816C51.2237 39.8627 48.475 34.682 46.4531 29.2134L45.9566 30.4295L52.2742 27.321L50.7991 26.9325C53.3847 32.4194 55.6832 38.037 57.6852 43.7626C58.1241 45.0794 60.2108 44.511 59.7719 43.223Z" fill="#112F25"/>
<path d="M45.4385 30.8761C39.9484 32.97 34.7173 35.6395 28.9609 37.0498C28.8039 37.0968 28.6593 37.1785 28.5381 37.2889C28.4169 37.3992 28.322 37.5355 28.2605 37.6875C28.199 37.8394 28.1725 38.0033 28.1829 38.167C28.1933 38.3306 28.2403 38.4898 28.3205 38.6328L33.1991 49.9512C33.321 50.1559 33.5065 50.3152 33.7273 50.4048C33.9481 50.4944 34.1921 50.5095 34.4223 50.4477C40.2794 48.8215 46.0357 46.9291 51.6913 44.7705C52.9793 44.2812 52.4109 42.1945 51.1157 42.691C45.4409 44.8496 39.6845 46.7421 33.8466 48.3682L35.0627 48.8647L30.177 37.5463L29.5294 39.1293C35.2857 37.6902 40.5168 35.0566 46.0141 32.9556C47.3021 32.4663 46.7337 30.3796 45.4385 30.8761Z" fill="#112F25"/>
<path d="M22.7502 52.0321C25.9234 50.8305 29.0462 49.5065 32.1762 48.1754C33.4498 47.6357 32.3561 45.7793 31.0897 46.3117C28.154 47.5638 25.1751 48.8158 22.1746 49.9526C20.8866 50.4419 21.455 52.5286 22.7502 52.0321Z" fill="#112F25"/>
<path d="M28.9529 39.5834C25.8588 40.8426 22.7072 41.9363 19.5412 43.0156C18.2317 43.4617 18.8217 45.5412 20.1169 45.0951C23.2829 44.0158 26.4273 42.9364 29.5285 41.6629C30.7949 41.152 30.2481 39.0581 28.9529 39.5834Z" fill="#112F25"/>
<path d="M23.4555 52.4343C22.1891 49.0525 20.419 45.9584 19.3756 42.4614C19.3286 42.3043 19.2469 42.1598 19.1366 42.0386C19.0262 41.9173 18.89 41.8225 18.738 41.761C18.586 41.6995 18.4221 41.673 18.2585 41.6834C18.0948 41.6937 17.9356 41.7408 17.7926 41.821L13.5761 43.5983C13.3705 43.7194 13.2105 43.9048 13.1208 44.1259C13.0311 44.3469 13.0166 44.5914 13.0796 44.8215C14.123 48.2969 15.9218 51.4054 17.1594 54.7944C17.2076 54.9507 17.2899 55.0943 17.4005 55.2148C17.5111 55.3353 17.6471 55.4296 17.7987 55.4909C17.9503 55.5522 18.1137 55.579 18.2769 55.5693C18.4401 55.5596 18.5992 55.5137 18.7424 55.4348L22.959 53.6575C24.2326 53.1179 23.1317 51.2543 21.8653 51.7867L17.6487 53.5712L19.2389 54.2188C17.9725 50.8369 16.2024 47.7429 15.1591 44.2459L14.6626 45.4907L18.8791 43.7134L17.2961 43.0658C18.3395 46.5412 20.1096 49.6569 21.3688 53.0387C21.8509 54.2979 23.9447 53.7367 23.4555 52.4343Z" fill="#112F25"/>
<path d="M57.0546 57.3096C54.3713 57.5915 52.7534 59.5645 53.0014 62.3099C53.272 65.2582 54.8166 67.079 57.8833 67.1241C58.5362 67.1316 59.1838 67.0059 59.7865 66.7547C60.3892 66.5035 60.9344 66.132 61.3887 65.6629C61.8429 65.1939 62.1968 64.6371 62.4286 64.0267C62.6605 63.4162 62.7654 62.7649 62.737 62.1126C62.6242 59.2939 60.3862 56.8756 57.4718 57.2589C56.4063 57.3998 56.395 59.0966 57.4718 58.9501C61.8125 58.3863 62.3649 65.4555 57.8607 65.4329C56.0343 65.4329 55.0421 64.5535 54.749 62.8398C54.4164 61.0133 54.9745 59.215 57.0321 59.0008C58.1031 58.8881 58.1144 57.1912 57.0321 57.3096H57.0546Z" fill="#112F25"/>
<path d="M56.8741 66.526C56.6185 71.0884 56.5509 75.6489 56.6711 80.2076C56.6711 81.2956 58.3623 81.3012 58.3623 80.2076C58.242 75.6414 58.3097 71.0809 58.5653 66.526C58.6273 65.438 56.9361 65.438 56.8741 66.526Z" fill="#112F25"/>
<path d="M53.8472 64.7168C50.5764 69.8252 47.6098 75.1222 44.9629 80.5801C44.4894 81.5553 45.9494 82.4122 46.4229 81.4313C49.071 75.9741 52.0376 70.6772 55.3073 65.568C55.871 64.6492 54.4335 63.8036 53.8472 64.7168Z" fill="#112F25"/>
<path d="M60.0144 66.0634C64.2367 70.2406 66.9764 75.6467 71.1592 79.8465C71.3195 79.9958 71.5315 80.0772 71.7506 80.0733C71.9697 80.0694 72.1787 79.9807 72.3336 79.8258C72.4885 79.6708 72.5773 79.4618 72.5812 79.2428C72.585 79.0237 72.5037 78.8117 72.3543 78.6514C68.1715 74.4573 65.4318 69.068 61.2151 64.8626C61.0524 64.7217 60.8424 64.6476 60.6273 64.6553C60.4122 64.663 60.208 64.7519 60.0558 64.9041C59.9036 65.0563 59.8148 65.2605 59.8071 65.4756C59.7994 65.6907 59.8734 65.9007 60.0144 66.0634Z" fill="#112F25"/>
</g>
</g>
</g>
<defs>
<clipPath id="clip0_1209_12219">
<rect width="100.549" height="86.3454" fill="white" transform="translate(0.898804 0.0512695)"/>
</clipPath>
<clipPath id="clip1_1209_12219">
<rect width="100.549" height="86.3454" fill="white" transform="translate(0.898804 0.0512695)"/>
</clipPath>
<clipPath id="clip2_1209_12219">
<rect width="100.549" height="86.3454" fill="white" transform="translate(0.898804 0.0512695)"/>
</clipPath>
</defs>
</svg>
