<svg width="75" height="76" viewBox="0 0 75 76" fill="none" xmlns="http://www.w3.org/2000/svg">
<path d="M39.8433 9.09375V14.5625H46.0151C47.112 14.5625 48.1839 14.8938 49.0901 15.5094L54.3933 19.1156C54.5245 19.2031 54.6703 19.2479 54.8307 19.25H67.6495C68.2711 19.25 68.8672 19.4969 69.3068 19.9365C69.7463 20.376 69.9933 20.9721 69.9933 21.5938C69.9933 22.2154 69.7463 22.8115 69.3068 23.251C68.8672 23.6906 68.2711 23.9375 67.6495 23.9375H62.7183L73.237 47.9375C73.4474 48.4174 73.491 48.954 73.3607 49.4615C73.2304 49.9691 72.9338 50.4183 72.5182 50.7375C72.2057 50.9688 71.8828 51.1833 71.5495 51.3813C70.7584 51.8571 69.9333 52.2738 69.0808 52.6281C66.2541 53.8102 63.2196 54.4147 60.1558 54.4063C57.0928 54.4195 54.0585 53.8159 51.2339 52.6313C50.3813 52.276 49.5561 51.8582 48.7651 51.3813C48.4327 51.1906 48.1123 50.9798 47.8058 50.75L47.7901 50.7375C47.3746 50.4183 47.0779 49.9691 46.9477 49.4615C46.8174 48.954 46.8609 48.4174 47.0714 47.9375L57.5964 23.9375H54.8276C53.7307 23.9375 52.6589 23.6063 51.7526 22.9906L46.4495 19.3844C46.3204 19.2969 46.168 19.2501 46.012 19.25H39.8433V64.5625H53.8651C54.4867 64.5625 55.0829 64.8094 55.5224 65.249C55.9619 65.6885 56.2089 66.2847 56.2089 66.9063C56.2089 67.5279 55.9619 68.124 55.5224 68.5635C55.0829 69.0031 54.4867 69.25 53.8651 69.25H21.1339C20.5123 69.25 19.9161 69.0031 19.4766 68.5635C19.0371 68.124 18.7901 67.5279 18.7901 66.9063C18.7901 66.2847 19.0371 65.6885 19.4766 65.249C19.9161 64.8094 20.5123 64.5625 21.1339 64.5625H35.1558V19.25H28.9839C28.8279 19.2501 28.6755 19.2969 28.5464 19.3844L23.2464 22.9906C22.3401 23.6063 21.2682 23.9375 20.1714 23.9375H17.4026L27.9276 47.9375C28.1313 48.4038 28.1778 48.9236 28.06 49.4186C27.9421 49.9136 27.6664 50.3568 27.2745 50.6813C27.0245 50.8844 26.7745 51.075 26.3058 51.3781C25.5159 51.8907 24.6886 52.343 23.8307 52.7313C21.009 54.0157 17.9435 54.6765 14.8432 54.6688C11.743 54.6765 8.67745 54.0157 5.85575 52.7313C4.99794 52.343 4.1706 51.8907 3.38075 51.3781C3.04812 51.1633 2.72588 50.9329 2.41512 50.6875C2.02548 50.36 1.75138 49.9159 1.63323 49.4208C1.51507 48.9257 1.55912 48.4057 1.75887 47.9375L12.2807 23.9375H7.35262C6.73102 23.9375 6.13488 23.6906 5.69534 23.251C5.2558 22.8115 5.00887 22.2154 5.00887 21.5938C5.00887 20.9721 5.2558 20.376 5.69534 19.9365C6.13488 19.4969 6.73102 19.25 7.35262 19.25H20.1714C20.3297 19.25 20.4766 19.2052 20.612 19.1156L25.9089 15.5094C26.8151 14.8906 27.8901 14.5625 28.987 14.5625H35.1558V9.09375C35.1558 8.47215 35.4027 7.87601 35.8422 7.43647C36.2818 6.99693 36.8779 6.75 37.4995 6.75C38.1211 6.75 38.7172 6.99693 39.1568 7.43647C39.5963 7.87601 39.8433 8.47215 39.8433 9.09375ZM6.85262 47.9938C9.31147 49.3048 12.0567 49.9866 14.8432 49.9781C17.6298 49.9866 20.375 49.3048 22.8339 47.9938L14.8432 29.775L6.85262 47.9938ZM52.1964 47.9188C52.4526 48.0438 52.7391 48.175 53.0558 48.3125C54.712 49.0094 57.1339 49.7188 60.1558 49.7188C62.9106 49.7261 65.6315 49.1108 68.1151 47.9188L60.1558 29.7719L52.1964 47.9188Z" fill="#B0BBCA"/>
</svg>
