<svg width="30" height="32" viewBox="0 0 30 32" fill="none" xmlns="http://www.w3.org/2000/svg">
<path d="M22.285 25.215L21.1933 24.1217C21.0489 23.9783 20.8783 23.9067 20.6817 23.9067C20.4839 23.9067 20.3133 23.9783 20.17 24.1217C20.0267 24.2639 19.955 24.4322 19.955 24.6267C19.955 24.8211 20.0267 24.99 20.17 25.1333L21.6033 26.5667C21.81 26.7744 22.0428 26.8783 22.3017 26.8783C22.5606 26.8783 22.7933 26.7744 23 26.5667L26.4967 23.1217C26.64 22.9783 26.7172 22.8133 26.7283 22.6267C26.7394 22.4389 26.6622 22.2628 26.4967 22.0983C26.3533 21.955 26.1778 21.8833 25.97 21.8833C25.7622 21.8833 25.5861 21.9555 25.4417 22.1L22.285 25.215ZM5.45 8.78665H21.22C21.4567 8.78665 21.6544 8.70721 21.8133 8.54832C21.9722 8.38943 22.0522 8.1911 22.0533 7.95332C22.0533 7.69443 21.9733 7.4911 21.8133 7.34332C21.6544 7.19443 21.4567 7.11999 21.22 7.11999H5.44833C5.21167 7.11999 5.01333 7.19943 4.85333 7.35832C4.69333 7.51721 4.61389 7.71554 4.615 7.95332C4.61611 8.1911 4.69556 8.38943 4.85333 8.54832C5.01111 8.70721 5.21111 8.78665 5.45 8.78665ZM23.3333 31.0967C21.4767 31.0967 19.9017 30.4494 18.6083 29.155C17.3139 27.8617 16.6667 26.2867 16.6667 24.43C16.6667 22.5733 17.3139 20.9978 18.6083 19.7033C19.9028 18.4089 21.4778 17.7622 23.3333 17.7633C25.1889 17.7644 26.7644 18.4111 28.06 19.7033C29.3556 20.9955 30.0022 22.5711 30 24.43C30 26.2855 29.3533 27.8605 28.06 29.155C26.7644 30.4494 25.1889 31.0967 23.3333 31.0967ZM0 3.59665C0 2.84999 0.262222 2.21443 0.786667 1.68999C1.31111 1.16554 1.94667 0.90332 2.69333 0.90332H23.975C24.7194 0.90332 25.3544 1.16554 25.88 1.68999C26.4044 2.21443 26.6667 2.84999 26.6667 3.59665V12.4583C26.6667 12.695 26.5872 12.8933 26.4283 13.0533C26.2694 13.2133 26.0711 13.2928 25.8333 13.2917C25.5956 13.2905 25.3972 13.2111 25.2383 13.0533C25.0794 12.8955 25 12.6972 25 12.4583V3.59665C25 3.33999 24.8933 3.10443 24.68 2.88999C24.4667 2.67554 24.2311 2.56888 23.9733 2.56999H2.69333C2.43667 2.56999 2.20111 2.67665 1.98667 2.88999C1.77222 3.10332 1.66556 3.33888 1.66667 3.59665V25.9867H12.24C12.2744 26.2111 12.315 26.4355 12.3617 26.66C12.4094 26.8844 12.4706 27.1055 12.545 27.3233C12.6194 27.5222 12.5694 27.685 12.395 27.8117C12.2194 27.9394 12.0528 27.945 11.895 27.8283L11.48 27.545C11.3567 27.4639 11.2267 27.4233 11.09 27.4233C10.9533 27.4233 10.8228 27.4639 10.6983 27.545L9.23667 28.5567C9.11333 28.6389 8.98333 28.68 8.84667 28.68C8.71 28.68 8.57944 28.6389 8.455 28.5567L6.99333 27.545C6.86889 27.4639 6.73833 27.4233 6.60167 27.4233C6.465 27.4233 6.335 27.4639 6.21167 27.545L4.75 28.5567C4.62667 28.6389 4.49667 28.68 4.36 28.68C4.22333 28.68 4.09278 28.6389 3.96833 28.5567L2.50667 27.545C2.38222 27.4639 2.25167 27.4233 2.115 27.4233C1.97833 27.4233 1.84833 27.4639 1.725 27.545L0 28.8833V3.59665ZM5.45 21.3517H11.9067C12.1444 21.3517 12.3428 21.2722 12.5017 21.1133C12.6606 20.9544 12.74 20.7561 12.74 20.5183C12.74 20.2805 12.6606 20.0828 12.5017 19.925C12.3428 19.7672 12.1444 19.6872 11.9067 19.685H5.45C5.21333 19.685 5.015 19.765 4.855 19.925C4.695 20.085 4.61556 20.2828 4.61667 20.5183C4.61778 20.7539 4.69722 20.9522 4.855 21.1133C5.01278 21.2744 5.21111 21.3539 5.45 21.3517ZM5.45 15.07H17.4567C17.6933 15.07 17.8917 14.9905 18.0517 14.8317C18.2117 14.6728 18.2911 14.4744 18.29 14.2367C18.2889 13.9989 18.2094 13.8005 18.0517 13.6417C17.8939 13.4828 17.6956 13.4033 17.4567 13.4033H5.44833C5.21167 13.4033 5.01333 13.4828 4.85333 13.6417C4.69333 13.8005 4.61444 13.9989 4.61667 14.2367C4.61889 14.4744 4.69833 14.6728 4.855 14.8317C5.01167 14.9905 5.21 15.07 5.45 15.07Z" fill="#002353"/>
</svg>
