<svg width="40" height="40" viewBox="0 0 40 40" fill="none" xmlns="http://www.w3.org/2000/svg">
<g clip-path="url(#clip0_1121_1077)">
<path d="M36.25 32.5006C35.4058 32.504 34.5879 32.795 33.9313 33.3256L31.25 31.7794V29.7719C32.084 29.477 32.787 28.8968 33.2345 28.1338C33.6821 27.3707 33.8456 26.4741 33.696 25.6022C33.5464 24.7303 33.0934 23.9394 32.4171 23.3692C31.7407 22.7991 30.8846 22.4863 30 22.4863C29.1154 22.4863 28.2593 22.7991 27.5829 23.3692C26.9066 23.9394 26.4536 24.7303 26.304 25.6022C26.1544 26.4741 26.3179 27.3707 26.7655 28.1338C27.2131 28.8968 27.916 29.477 28.75 29.7719V31.7794L26.0688 33.3281C25.4125 32.7966 24.5946 32.5047 23.75 32.5006C22.9665 32.4953 22.2007 32.734 21.5589 33.1834C20.9171 33.6329 20.4311 34.271 20.1682 35.0091C19.9054 35.7473 19.8787 36.5489 20.0919 37.3029C20.3052 38.0569 20.7478 38.7258 21.3583 39.2169C21.9688 39.708 22.717 39.997 23.4992 40.0438C24.2813 40.0906 25.0586 39.8928 25.7233 39.4779C26.388 39.063 26.9071 38.4516 27.2087 37.7284C27.5103 37.0052 27.5793 36.2061 27.4063 35.4419L30 33.9444L32.5938 35.4419C32.4268 36.1997 32.4992 36.9906 32.801 37.7055C33.1028 38.4204 33.619 39.024 34.2785 39.4329C34.9379 39.8419 35.7081 40.036 36.4826 39.9886C37.2571 39.9412 37.9978 39.6545 38.6025 39.1681C39.2071 38.6817 39.6458 38.0196 39.8581 37.2732C40.0703 36.5269 40.0457 35.733 39.7875 35.0012C39.5293 34.2695 39.0503 33.6359 38.4167 33.188C37.783 32.7401 37.026 32.4999 36.25 32.5006ZM23.75 37.5006C23.5028 37.5006 23.2611 37.4273 23.0555 37.29C22.85 37.1526 22.6898 36.9574 22.5952 36.729C22.5006 36.5006 22.4758 36.2492 22.524 36.0067C22.5723 35.7643 22.6913 35.5415 22.8661 35.3667C23.0409 35.1919 23.2637 35.0729 23.5061 35.0246C23.7486 34.9764 24 35.0012 24.2284 35.0958C24.4568 35.1904 24.652 35.3506 24.7893 35.5561C24.9267 35.7617 25 36.0034 25 36.2506C25 36.5821 24.8683 36.9001 24.6339 37.1345C24.3995 37.3689 24.0815 37.5006 23.75 37.5006ZM30 25.0006C30.2472 25.0006 30.4889 25.0739 30.6945 25.2113C30.9 25.3486 31.0603 25.5439 31.1549 25.7723C31.2495 26.0007 31.2742 26.252 31.226 26.4945C31.1778 26.737 31.0587 26.9597 30.8839 27.1345C30.7091 27.3093 30.4864 27.4284 30.2439 27.4766C30.0014 27.5248 29.7501 27.5001 29.5217 27.4055C29.2932 27.3109 29.098 27.1506 28.9607 26.9451C28.8233 26.7395 28.75 26.4978 28.75 26.2506C28.75 25.9191 28.8817 25.6011 29.1161 25.3667C29.3505 25.1323 29.6685 25.0006 30 25.0006ZM36.25 37.5006C36.0028 37.5006 35.7611 37.4273 35.5555 37.29C35.35 37.1526 35.1898 36.9574 35.0952 36.729C35.0006 36.5006 34.9758 36.2492 35.024 36.0067C35.0723 35.7643 35.1913 35.5415 35.3661 35.3667C35.5409 35.1919 35.7637 35.0729 36.0061 35.0246C36.2486 34.9764 36.5 35.0012 36.7284 35.0958C36.9568 35.1904 37.152 35.3506 37.2893 35.5561C37.4267 35.7617 37.5 36.0034 37.5 36.2506C37.5 36.5821 37.3683 36.9001 37.1339 37.1345C36.8995 37.3689 36.5815 37.5006 36.25 37.5006Z" fill="#002353"/>
<path d="M8.75 27.5C10.1307 27.5 11.25 26.3807 11.25 25C11.25 23.6193 10.1307 22.5 8.75 22.5C7.36929 22.5 6.25 23.6193 6.25 25C6.25 26.3807 7.36929 27.5 8.75 27.5Z" fill="#002353"/>
<path d="M17.5 25C16.5111 25 15.5444 24.7068 14.7222 24.1574C13.8999 23.6079 13.259 22.827 12.8806 21.9134C12.5022 20.9998 12.4031 19.9945 12.5961 19.0246C12.789 18.0546 13.2652 17.1637 13.9645 16.4645C14.6637 15.7652 15.5546 15.289 16.5246 15.0961C17.4945 14.9031 18.4998 15.0022 19.4134 15.3806C20.3271 15.759 21.1079 16.3999 21.6574 17.2222C22.2068 18.0444 22.5 19.0111 22.5 20C22.4967 21.3251 21.9689 22.5949 21.0319 23.5319C20.0949 24.4689 18.8251 24.9967 17.5 25ZM17.5 17.5C17.0055 17.5 16.5222 17.6466 16.1111 17.9213C15.7 18.196 15.3795 18.5865 15.1903 19.0433C15.0011 19.5001 14.9516 20.0028 15.048 20.4877C15.1445 20.9727 15.3826 21.4181 15.7322 21.7678C16.0819 22.1174 16.5273 22.3555 17.0123 22.452C17.4972 22.5484 17.9999 22.4989 18.4567 22.3097C18.9135 22.1205 19.304 21.8001 19.5787 21.3889C19.8534 20.9778 20 20.4945 20 20C19.998 19.3376 19.734 18.7028 19.2656 18.2344C18.7972 17.766 18.1624 17.502 17.5 17.5Z" fill="#002353"/>
<path d="M26.25 17.5C27.6307 17.5 28.75 16.3807 28.75 15C28.75 13.6193 27.6307 12.5 26.25 12.5C24.8693 12.5 23.75 13.6193 23.75 15C23.75 16.3807 24.8693 17.5 26.25 17.5Z" fill="#002353"/>
<path d="M16.275 35.3394L3.75 28.0319V11.9669L17.5 3.94689L31.87 12.3294L33.13 10.1694L18.13 1.41939C17.9388 1.30782 17.7214 1.24902 17.5 1.24902C17.2786 1.24902 17.0612 1.30782 16.87 1.41939L1.87 10.1694C1.68128 10.2795 1.52472 10.4372 1.41593 10.6267C1.30715 10.8162 1.24994 11.0309 1.25 11.2494V28.7494C1.24994 28.9679 1.30715 29.1826 1.41593 29.3721C1.52472 29.5616 1.68128 29.7193 1.87 29.8294L15.0162 37.4994L16.275 35.3394Z" fill="#002353"/>
</g>
<defs>
<clipPath id="clip0_1121_1077">
<rect width="40" height="40" fill="white"/>
</clipPath>
</defs>
</svg>
